# AST/ASF file generated using VICON BodyLanguage
# -----------------------------------------------
:version 1.10
:name VICON
:units
  mass 1.0
  length 0.45
  angle deg
:documentation
   .ast/.asf automatically generated from VICON data using
   VICON BodyBuilder and BodyLanguage model FoxedUp or BRILLIANT.MOD
:root
   order TX TY TZ RX RY RZ
   axis XYZ
   position 0 0 0  
   orientation 0 0 0 
:bonedata
  begin
     id 1 
     name lhipjoint
     direction 0.710087 -0.641647 0.289942 
     length 2.79038 
     axis 0 0 0  XYZ
  end
  begin
     id 2 
     name lfemur
     direction 0.34202 -0.939693 0  
     length 7.2706  
     axis 0 0 20  XYZ
    dof rx ry rz
    limits (-160.0 20.0)
           (-70.0 70.0)
           (-60.0 70.0)
  end
  begin
     id 3 
     name ltibia
     direction 0.34202 -0.939693 0   
     length 7.86328   
     axis 0 0 20   XYZ
    dof rx
    limits (-10.0 170.0)
  end
  begin
     id 4 
     name lfoot
     direction 0.0541246 -0.148706 0.987399   
     length 2.37542   
     axis -90 7.62852e-016 20   XYZ
    dof rx rz
    limits (-45.0 90.0)
           (-70.0 20.0)
  end
  begin
     id 5 
     name ltoes
     direction 1.53554e-011 -4.21866e-011 1   
     length 1.19593   
     axis -90 7.62852e-016 20   XYZ
    dof rx
    limits (-90.0 20.0)
  end
  begin
     id 6 
     name rhipjoint
     direction -0.675762 -0.671724 0.303533   
     length 2.66544  
     axis 0 0 0  XYZ 
  end
  begin
     id 7 
     name rfemur
     direction -0.34202 -0.939693 0   
     length 8.11844   
     axis 0 0 -20   XYZ
    dof rx ry rz
    limits (-160.0 20.0)
           (-70.0 70.0)
           (-70.0 60.0)
  end
  begin
     id 8 
     name rtibia
     direction -0.34202 -0.939693 0   
     length 7.97082   
     axis 0 0 -20   XYZ
    dof rx
    limits (-10.0 170.0)
 end
 begin
     id 9 
     name rfoot
     direction -0.0726228 -0.199474 0.977208   
     length 2.19677  
     axis -90 -7.62852e-016 -20   XYZ
    dof rx rz
    limits (-45.0 90.0)
           (-20.0 70.0)
  end
  begin
     id 10 
     name rtoes
     direction -1.53508e-011 -4.21913e-011 1   
     length 1.10438   
     axis -90 -7.62852e-016 -20   XYZ
    dof rx
    limits (-90.0 20.0)
  end
  begin
     id 11 
     name lowerback
     direction -0.00404436 0.999673 -0.0252643   
     length 2.03972   
     axis 0 0 0   XYZ
    dof rx ry rz
    limits (-20.0 45.0)
           (-30.0 30.0)
           (-30.0 30.0)
  end
  begin
     id 12 
     name upperback
     direction 0.00744643 0.999969 0.00242763   
     length 2.04273   
     axis 0 0 0   XYZ
    dof rx ry rz
    limits (-20.0 45.0)
           (-30.0 30.0)
           (-30.0 30.0)
  end
  begin
     id 13 
     name thorax
     direction 0.00846113 0.999862 0.0143204   
     length 2.03752   
     axis 0 0 0   XYZ
    dof rx ry rz
    limits (-20.0 45.0)
           (-30.0 30.0)
           (-30.0 30.0)
  end
  begin
     id 14 
     name lowerneck
     direction 0.0328213 0.990857 0.130862   
     length 1.37497   
     axis 0 0 0   XYZ
    dof rx ry rz
    limits (-20.0 45.0)
           (-30.0 30.0)
           (-30.0 30.0)
  end
  begin
     id 15 
     name upperneck
     direction -0.0302832 0.999496 0.00956452   
     length 1.35926   
     axis 0 0 0   XYZ
    dof rx ry rz
    limits (-20.0 45.0)
           (-30.0 30.0)
           (-30.0 30.0)
  end
  begin
     id 16
     name head
     direction -0.0130455 0.999856 -0.0108809  
     length 1.44454  
     axis 0 0 0   XYZ
    dof rx ry rz
    limits (-20.0 45.0)
           (-30.0 30.0)
           (-30.0 30.0)
  end
  begin
     id 17 
     name lclavicle
     direction 0.952957 0.278766 0.119006  
     length 3.10112  
     axis 0 0 0   XYZ
    dof ry rz
    limits (-20.0 10.0)
           (0.0 20.0)
  end
  begin
     id 18 
     name lhumerus
     direction 1 -4.48972e-011 -1.63238e-028   
     length 5.82845   
     axis -180 -30 -90   XYZ
    dof rx ry rz
    limits (-60.0 90.0)
           (-90.0 90.0)
           (-90.0 90.0)
  end
  begin
     id 19
     name lradius
     direction 1 -4.48959e-011 1.45401e-026   
     length 3.49691   
     axis -180 -30 -90   XYZ
    dof rx
    limits (-10.0 170.0)
  end
  begin
     id 20
     name lwrist
     direction 1 -4.48945e-011 2.98015e-026   
     length 1.74845   
     axis -1.7599e-014 90 90   XYZ
    dof ry
    limits (-180.0 0.0)
 end
  begin
     id 21 
     name lhand
     direction 1 -4.4902e-011 5.9603e-026   
     length 0.674998   
     axis -3.80318e-014 90 90   XYZ
    dof rx rz
    limits (-90.0 90.0)
           (-45.0 45.0)
  end
  begin
     id 22 
     name lfingers
     direction 1 -4.48979e-011 1.19206e-025   
     length 0.544201   
     axis -7.60636e-014 90 90   XYZ
    dof rx
    limits (0.0 90.0)
  end
  begin
     id 23
     name lthumb
     direction 0.707107 -6.34941e-011 0.707107   
     length 0.781367   
     axis -90 45 2.85299e-015   XYZ
    dof rx rz
    limits (-45.0 45.0)
           (-45.0 45.0)
  end
  begin
     id 24 
     name rclavicle
     direction -0.967632 0.241887 0.0719654   
     length 3.53012  
     axis 0 0 0   XYZ 
    dof ry rz
    limits (-10.0 20.0)
           (-20.0 0.0)
  end
  begin
     id 25 
     name rhumerus
     direction -1 -4.4897e-011 6.87619e-028  
     length 5.45859   
     axis -180 30 90   XYZ
    dof rx ry rz
    limits (-90.0 60.0)
           (-90.0 90.0)
           (-90.0 90.0)
  end
  begin
     id 26 
     name rradius
     direction -1 -4.48967e-011 1.68055e-026   
     length 3.58491   
     axis -180 30 90   XYZ
    dof rx
    limits (-10.0 170.0)
  end
  begin
     id 27 
     name rwrist
     direction -1 -4.48976e-011 2.98015e-026   
     length 1.79245   
     axis -1.7599e-014 -90 -90   XYZ
    dof ry
    limits (-180.0 0.0)
  end
  begin
     id 28
     name rhand
     direction -1 -4.48996e-011 5.9603e-026   
     length 0.683735   
     axis -3.80318e-014 -90 -90   XYZ
    dof rx rz
    limits (-90.0 90.0)
           (-45.0 45.0)
  end
  begin
     id 29
     name rfingers
     direction -1 -4.48924e-011 1.19206e-025   
     length 0.551245   
     axis -7.60636e-014 -90 -90   XYZ
    dof rx
    limits (0.0 90.0)
  end
  begin
     id 30
     name rthumb
     direction -0.707107 -6.3492e-011 0.707107   
     length 0.791481   
     axis -90 -45 -2.85299e-015   XYZ
    dof rx rz
    limits (-45.0 45.0)
           (-45.0 45.0)
  end
:hierarchy
  begin
    root lhipjoint rhipjoint lowerback
    lhipjoint lfemur
    lfemur ltibia
    ltibia lfoot
    lfoot ltoes
    rhipjoint rfemur
    rfemur rtibia
    rtibia rfoot
    rfoot rtoes
    lowerback upperback
    upperback thorax
    thorax lowerneck lclavicle rclavicle
    lowerneck upperneck
    upperneck head
    lclavicle lhumerus
    lhumerus lradius
    lradius lwrist
    lwrist lhand lthumb
    lhand lfingers
    rclavicle rhumerus
    rhumerus rradius
    rradius rwrist
    rwrist rhand rthumb
    rhand rfingers
  end

#!OML:ASF F:\VICON\USERDATA\INSTALL\rory3\rory3.ASF
:FULLY-SPECIFIED
:DEGREES
423
root -0.703082 18.1422 -30.4025 6.73865 8.21978 -1.53977
lowerback -5.12186 2.54347 2.38816
upperback -3.96503 3.30319 -1.75152
thorax -0.977084 1.5926 -2.99563
lowerneck -6.59969 -0.341328 6.51262
upperneck 0.399897 -0.765171 -8.03382
head 1.24812 -0.508747 -3.82911
rclavicle 2.46245e-014 -1.15295e-014
rhumerus 21.4538 -19.7354 -46.282
rradius 98.361
rwrist -31.2847
rhand -20.0992 46.1918
rfingers 7.12502
rthumb 6.24406 16.3038
lclavicle 2.46245e-014 -1.15295e-014
lhumerus -25.9447 -17.2367 74.3517
lradius 78.9542
lwrist 71.4343
lhand -26.0852 65.281
lfingers 7.12502
lthumb -179.537 84.7398
rfemur -16.2878 7.85474 22.8504
rtibia 40.5208
rfoot -42.6676 -9.1721
rtoes 19.9377
lfemur -10.9713 -12.3571 -16.206
ltibia 22.2292
lfoot -13.7127 5.40494
ltoes -7.71119
424
root -0.701879 18.1423 -30.3912 6.66476 8.40442 -1.49418
lowerback -5.33302 2.50962 2.07401
upperback -3.86198 3.26616 -1.73653
thorax -0.773097 1.58413 -2.79328
lowerneck -6.44087 -0.195513 6.26429
upperneck 0.205861 -0.554313 -7.94266
head 1.17218 -0.39881 -3.73724
rclavicle -9.81499e-015 2.38542e-014
rhumerus 20.3288 -19.279 -45.6749
rradius 100.064
rwrist -29.9404
rhand -20.4132 46.4599
rfingers 7.12502
rthumb 5.94086 16.5632
lclavicle -9.81499e-015 2.38542e-014
lhumerus -26.3582 -16.6658 74.1194
lradius 78.2565
lwrist 71.5061
lhand -26.1226 65.5901
lfingers 7.12502
lthumb -179.573 84.4306
rfemur -16.1721 7.43575 22.852
rtibia 40.5224
rfoot -42.4257 -9.82352
rtoes 18.215
lfemur -10.8963 -12.2738 -16.2446
ltibia 22.2577
lfoot -13.6153 5.10126
ltoes -7.64629
425
root -0.695471 18.1398 -30.3791 6.50421 8.2664 -1.57136
lowerback -5.55168 2.61952 1.89418
upperback -3.70891 3.41647 -1.75185
thorax -0.493241 1.66744 -2.68516
lowerneck -6.32885 -0.0777917 6.26086
upperneck 0.0431974 -0.399596 -7.91024
head 1.11119 -0.31819 -3.71754
rclavicle -6.63444e-015 -1.35174e-014
rhumerus 18.9281 -18.7789 -45.0881
rradius 101.774
rwrist -28.7838
rhand -20.7026 46.3377
rfingers 7.12502
rthumb 5.66151 16.4334
lclavicle -6.63444e-015 -1.35174e-014
lhumerus -26.5968 -16.3094 73.8415
lradius 77.5133
lwrist 72.1817
lhand -27.7313 66.7102
lfingers 7.12502
lthumb -181.126 83.3131
rfemur -15.9975 7.26516 22.9155
rtibia 40.5283
rfoot -42.2576 -10.2535
rtoes 16.5194
lfemur -10.6383 -12.399 -16.2349
ltibia 22.2805
lfoot -13.6109 5.37828
ltoes -8.48911
426
root -0.687931 18.1376 -30.3731 6.37481 7.95415 -1.73495
lowerback -5.64549 2.79001 1.85184
upperback -3.6316 3.64397 -1.77742
thorax -0.348627 1.78427 -2.66735
lowerneck -6.40803 0.0377049 6.66379
upperneck 0.0890543 -0.269141 -8.2601
head 1.15474 -0.259517 -3.91913
rclavicle -1.66482e-015 -2.38542e-014
rhumerus 17.362 -18.0499 -44.7179
rradius 103.307
rwrist -27.521
rhand -20.8968 46.3267
rfingers 7.12502
rthumb 5.47395 16.4174
lclavicle -1.66482e-015 -2.38542e-014
lhumerus -26.8342 -15.9173 73.5232
lradius 76.6135
lwrist 72.5265
lhand -28.2375 67.5667
lfingers 7.12502
lthumb -181.615 82.4596
rfemur -15.887 7.23819 23.0317
rtibia 40.5262
rfoot -42.1392 -9.95035
rtoes 16.5188
lfemur -10.3903 -12.5125 -16.1473
ltibia 22.2955
lfoot -13.75 5.84446
ltoes -9.62509
427
root -0.680148 18.1366 -30.3711 6.312 7.7845 -1.69694
lowerback -5.61823 2.81522 1.65131
upperback -3.58946 3.68673 -1.78664
thorax -0.329175 1.80908 -2.56234
lowerneck -6.69317 0.218198 6.62984
upperneck 0.337265 -0.0248794 -8.33892
head 1.30852 -0.145637 -3.93933
rclavicle -5.10628e-014 -4.77083e-015
rhumerus 15.7958 -16.9467 -44.4727
rradius 104.656
rwrist -26.3397
rhand -21.011 46.7986
rfingers 7.12502
rthumb 5.36371 16.8864
lclavicle -5.10628e-014 -4.77083e-015
lhumerus -27.1002 -15.255 73.2243
lradius 75.4994
lwrist 72.4273
lhand -27.3298 66.8392
lfingers 7.12502
lthumb -180.739 83.1824
rfemur -15.8425 7.06883 22.9382
rtibia 40.5475
rfoot -41.9808 -9.67173
rtoes 16.8653
lfemur -10.2404 -12.4475 -16.2633
ltibia 22.2963
lfoot -13.759 6.11314
ltoes -11.5711
